#!OML:ASF Y:\EmotionMaleHayes\Project 1\Capture day 1\Session 1\Male1.ASF
:FULLY-SPECIFIED
:DEGREES
230
root -3.26641 17.3098 -0.278668 272.291 87.4459 268.519
lowerback 14.038 1.67284 2.69651
upperback 3.5113 2.94727 3.19769
thorax -4.19434 1.5208 1.31509
lowerneck -25.8829 0.896203 5.30502
upperneck 24.7623 0.128605 -2.94162
head 12.5245 0.208802 -1.97914
rclavicle -3.57812e-015 -1.98785e-014
rhumerus -26.8334 10.494 -85.7489
rradius 47.2723
rwrist -18.4857
rhand -16.4003 -27.505
rfingers 7.12502
rthumb 9.81401 -57.2563
lclavicle -3.57812e-015 -1.98785e-014
lhumerus -37.5192 -15.0231 94.5388
lradius 26.4351
lwrist -14.8163
lhand -9.90301 -15.7782
lfingers 7.12502
lthumb 16.077 13.5748
rfemur -0.878663 -0.962865 24.1969
rtibia 11.337
rfoot -20.0986 0.31653
rtoes -0.0048055
lfemur -18.5169 10.3731 -15.0676
ltibia 57.6034
lfoot -7.70188 -1.45617
ltoes -2.29922
231
root -2.98913 17.3177 -0.272286 271.685 87.0696 268.044
lowerback 13.662 1.73533 3.05345
upperback 3.78347 3.05878 3.19621
thorax -3.68575 1.58512 1.11212
lowerneck -25.9845 0.872261 5.38163
upperneck 24.492 0.0885884 -3.0829
head 12.4342 0.170698 -2.0502
rclavicle 6.95746e-015 -6.36111e-015
rhumerus -26.486 15.6929 -86.8841
rradius 49.8614
rwrist -17.8383
rhand -16.4233 -27.505
rfingers 7.12502
rthumb 9.79181 -57.2574
lclavicle 6.95746e-015 -6.36111e-015
lhumerus -38.6961 -13.8144 93.5959
lradius 26.0449
lwrist -16.6852
lhand -8.91173 -15.6334
lfingers 7.12502
lthumb 17.0314 13.64
rfemur 1.07056 -1.53054 24.4741
rtibia 10.0269
rfoot -20.4628 1.20781
rtoes 1.78936
lfemur -20.5165 10.4326 -14.7106
ltibia 56.7729
lfoot -8.40581 -1.135
ltoes -1.74196
232
root -2.71384 17.3096 -0.266355 274.573 86.7691 270.932
lowerback 13.3959 1.83795 3.31027
upperback 3.90245 3.20878 3.14031
thorax -3.39884 1.66382 0.89794
lowerneck -25.9122 0.869569 5.58633
upperneck 24.1351 0.0777761 -3.36168
head 12.2783 0.138162 -2.18696
rclavicle -2.22639e-014 -6.04305e-014
rhumerus -26.4731 21.0318 -87.9446
rradius 52.6765
rwrist -18.2525
rhand -18.4056 -25.9435
rfingers 7.12502
rthumb 7.87889 -55.7767
lclavicle -2.22639e-014 -6.04305e-014
lhumerus -40.2071 -13.1814 92.9144
lradius 25.8996
lwrist -17.6689
lhand -8.55942 -15.6121
lfingers 7.12502
lthumb 17.3705 13.6317
rfemur 2.69685 -2.0737 24.5972
rtibia 9.01563
rfoot -20.7103 2.30903
rtoes 3.57031
lfemur -22.6637 10.5904 -14.4902
ltibia 55.8775
lfoot -9.14244 -0.560563
ltoes -0.683126
233
root -2.44269 17.2852 -0.260889 276.796 86.3445 273.022
lowerback 13.2554 1.92192 3.75419
upperback 3.80024 3.36351 3.03194
thorax -3.39638 1.73569 0.515719
lowerneck -25.8393 0.927066 5.89465
upperneck 24.086 0.104638 -3.58385
head 12.2466 0.148072 -2.31716
rclavicle -1.11319e-014 2.06736e-014
rhumerus -26.386 24.9929 -88.4126
rradius 55.8449
rwrist -14.0787
rhand -14.3932 -27.7185
rfingers 7.12502
rthumb 11.7499 -57.369
lclavicle -1.11319e-014 2.06736e-014
lhumerus -42.2961 -13.403 92.5676
lradius 26.2368
lwrist -17.424
lhand -8.54333 -15.5535
lfingers 7.12502
lthumb 17.386 13.6889
rfemur 4.14483 -2.93552 24.8
rtibia 7.96071
rfoot -20.8464 3.2778
rtoes 2.76138
lfemur -24.9814 10.81 -14.1767
ltibia 54.8947
lfoot -9.74693 0.298549
ltoes -0.916818
234
root -2.17236 17.2483 -0.257773 279.179 85.8236 275.259
lowerback 13.1201 2.02903 4.26526
upperback 3.69531 3.55998 2.96041
thorax -3.39356 1.82805 0.129078
lowerneck -25.9824 1.00501 6.19073
upperneck 24.2797 0.150783 -3.78526
head 12.3535 0.172214 -2.44051
rclavicle -1.07344e-014 -1.90833e-014
rhumerus -26.2691 28.9672 -88.7772
rradius 58.8263
rwrist -11.7979
rhand -13.1237 -27.4229
rfingers 7.12502
rthumb 12.974 -56.9995
lclavicle -1.07344e-014 -1.90833e-014
lhumerus -44.529 -13.9685 92.4451
lradius 26.9216
lwrist -16.3053
lhand -8.56204 -15.5835
lfingers 7.12502
lthumb 17.368 13.6605
rfemur 5.437 -3.79916 25.0907
rtibia 7.02917
rfoot -20.8644 4.21374
rtoes 1.49979
lfemur -27.1758 11.0581 -13.7074
ltibia 53.6456
lfoot -10.296 1.12878
ltoes -1.54201
235
root -1.90259 17.2007 -0.256906 281.96 85.4294 277.984
lowerback 12.8859 2.18291 4.59589
upperback 3.8006 3.78633 2.93335
thorax -3.12616 1.94696 -0.103077
lowerneck -26.2675 1.02235 6.34096
upperneck 24.3159 0.164994 -4.03068
head 12.4232 0.156088 -2.56114
rclavicle -1.80894e-014 -1.74931e-014
rhumerus -25.6397 32.8024 -88.5868
rradius 61.837
rwrist -10.7981
rhand -13.6632 -26.0163
rfingers 7.12502
rthumb 12.4539 -55.6252
lclavicle -1.80894e-014 -1.74931e-014
lhumerus -46.4971 -14.6639 92.5282
lradius 27.7159
lwrist -14.5646
lhand -8.8249 -15.8294
lfingers 7.12502
lthumb 17.115 13.4367
rfemur 6.66877 -4.15558 25.2611
rtibia 6.44151
rfoot -20.9767 5.18724
rtoes 3.3041
lfemur -29.0881 11.2849 -13.3384
ltibia 52.0618
lfoot -10.704 1.9636
ltoes -0.489057
236
root -1.6368 17.1403 -0.253482 282.073 84.958 278.107
lowerback 12.7645 2.30529 5.09964
upperback 3.8768 3.99984 2.88006
thorax -2.93414 2.05879 -0.460353
lowerneck -26.2924 0.948475 6.54718
upperneck 24.2206 0.0259481 -4.21692
head 12.3809 0.0855396 -2.69031
rclavicle 2.98177e-014 1.66979e-014
rhumerus -25.093 35.8775 -88.1356
rradius 65.3053
rwrist -9.7036
rhand -13.3294 -24.0721
rfingers 7.12502
rthumb 12.7757 -53.6612
lclavicle 2.98177e-014 1.66979e-014
lhumerus -48.758 -15.9294 92.8641
lradius 28.7905
lwrist -12.5157
lhand -9.40403 -16.0061
lfingers 7.12502
lthumb 16.5575 13.3075
rfemur 8.07593 -4.45333 25.569
rtibia 5.78216
rfoot -21.3689 6.01618
rtoes 5.1237
lfemur -30.8942 11.3061 -12.8132
ltibia 50.3435
lfoot -11.0277 2.71978
ltoes 0.702025
237
root -1.37388 17.0689 -0.248829 281.363 84.3479 277.44
lowerback 12.9024 2.42107 5.80282
upperback 3.78039 4.25237 2.79398
thorax -3.04041 2.17817 -0.985498
lowerneck -25.9999 0.832115 6.68948
upperneck 24.0821 -0.214442 -4.08834
head 12.255 0.0106618 -2.70031
rclavicle -5.24792e-014 7.15625e-015
rhumerus -24.7703 38.4718 -87.6923
rradius 68.9258
rwrist -8.637
rhand -12.9575 -22.7657
rfingers 7.12502
rthumb 13.1342 -52.3321
lclavicle -5.24792e-014 7.15625e-015
lhumerus -51.4269 -17.3306 93.2491
lradius 30.0999
lwrist -10.5485
lhand -9.91327 -16.4488
lfingers 7.12502
lthumb 16.0672 12.9051
rfemur 9.50113 -5.13756 25.955
rtibia 5.13283
rfoot -21.8951 6.71233
rtoes 4.33296
lfemur -32.5848 11.2106 -12.035
ltibia 48.4647
lfoot -11.2368 3.35663
ltoes -0.703375
238
root -1.11082 16.9873 -0.241694 282.496 83.6325 278.68
lowerback 13.2126 2.57944 6.44494
upperback 3.65018 4.57796 2.7892
thorax -3.27599 2.32784 -1.41444
lowerneck -25.7238 0.692041 6.52917
upperneck 23.9572 -0.428408 -3.74582
head 12.1415 -0.0518767 -2.57365
rclavicle -1.98785e-015 -2.06736e-014
rhumerus -24.2976 41.0065 -87.0146
rradius 72.416
rwrist -7.91722
rhand -13.0577 -21.9795
rfingers 7.12502
rthumb 13.0376 -51.552
lclavicle -1.98785e-015 -2.06736e-014
lhumerus -54.0975 -18.2606 93.5623
lradius 31.4386
lwrist -8.5108
lhand -10.0312 -17.093
lfingers 7.12502
lthumb 15.9536 12.27
rfemur 10.7938 -5.79107 26.3846
rtibia 4.86137
rfoot -22.3193 7.47708
rtoes 3.88655
lfemur -33.9833 11.3433 -11.0393
ltibia 46.2301
lfoot -11.1292 3.89337
ltoes -1.34937
